Coordinates
version=1
nRows=17
nColumns=33
inDegrees=yes

Units are S.I. units (second, meters, Newtons, ...)
Angles are in degrees.

endheader
time	ground_thorax_rot_x	ground_thorax_rot_y	ground_thorax_rot_z	ground_thorax_tx	ground_thorax_ty	ground_thorax_tz	clav_prot_r	clav_elev_r	scapula_abduction_r	scapula_elevation_r	scapula_upward_rot_r	scapula_winging_r	shoulder_elv_r	plane_of_elev_r	axial_rot_r	elbow_flexion_r	pro_sup_r	wrist_flex_r	wrist_dev_r	clav_prot_l	clav_elev_l	scapula_abduction_l	scapula_elevation_l	scapula_upward_rot_l	scapula_winging_l	shoulder_elv_l	plane_of_elev_l	axial_rot_l	elbow_flexion_l	pro_sup_l	wrist_flex_l	wrist_dev_l
      7.03000000	     -2.51766310	      0.99066367	     12.51366095	     -0.11382759	      1.02500431	      0.00926430	     13.73595050	    -11.17073735	     31.54714636	     -9.16492991	     14.22448525	     -9.02775228	    -14.53112913	    -60.72874461	    116.53710042	    -63.98217785	   -161.29107280	      9.01973462	      3.67960354	     17.74559067	     -9.04595052	    -25.43389827	     -9.38212234	    -27.77148728	      5.77530257	     60.15231280	     -6.65187503	     13.23921890	     36.54311665	     20.37453283	     15.73360419	    -13.09721411
      7.04000000	     -2.33818157	      0.91491410	     12.54386535	     -0.11426555	      1.02490803	      0.00910366	     13.50636950	    -10.88501989	     30.97086060	     -8.81315672	     13.89045407	     -8.94086925	    -15.02900033	    -61.15578660	    116.50824358	    -65.17734273	   -161.46450113	      9.35323629	      3.53524750	     17.51632431	     -8.71444284	    -25.06698125	     -9.86636453	    -28.14273448	      5.59606274	     59.90332179	     -6.98245288	     13.54363368	     38.01837892	     20.07412058	     15.71881960	    -13.30057685
      7.05000000	     -2.35701448	      0.87570048	     12.93268010	     -0.11491871	      1.02501801	      0.00880051	     13.34204858	    -10.95550974	     30.27298443	     -8.64700254	     13.19241983	     -8.63507291	    -15.82983045	    -61.76077242	    116.20769400	    -66.17363784	   -161.92092070	      9.84916023	      3.01347111	     17.23061208	     -8.45052667	    -24.60317423	    -10.34016139	    -28.61170107	      5.34285578	     59.87290024	     -7.83216202	     13.19091338	     39.81938359	     19.52079154	     15.93796383	    -13.37083408
      7.06000000	     -2.48854132	      0.90192570	     12.79489377	     -0.11528087	      1.02567249	      0.00866679	     13.09189998	    -11.48116662	     29.46380915	     -8.89471571	     12.54674128	     -8.03535798	    -16.76518716	    -62.36004128	    115.39227664	    -67.48487552	   -162.84462782	     10.79176751	      1.84877902	     16.86010246	     -8.35816092	    -23.97595591	    -10.50377640	    -28.74502250	      5.01523056	     60.28365657	     -8.88098578	     12.54578495	     41.63382299	     18.46768984	     16.34635616	    -12.97527658
      7.07000000	     -2.34486125	      0.84408442	     12.98272171	     -0.11577874	      1.02559455	      0.00843320	     12.86190236	    -11.22669393	     28.81609698	     -8.52398103	     12.09274009	     -7.90670052	    -17.40368997	    -62.94453095	    115.32717354	    -68.56400778	   -163.02869427	     11.21367298	      1.60861778	     16.59217675	     -7.99776207	    -23.54707121	    -11.04709818	    -29.17557764	      4.79367559	     60.02503259	     -9.38915034	     12.65581306	     43.26684802	     18.07981827	     16.31545369	    -13.11575961
      7.08000000	     -2.28281049	      0.79065063	     13.10905851	     -0.11637963	      1.02552963	      0.00835615	     12.71163600	    -11.02817690	     28.21397414	     -8.15010121	     11.49891475	     -7.77279185	    -18.03824306	    -63.40451606	    115.19352402	    -69.76279651	   -163.16576604	     11.70498318	      1.29399410	     16.35415046	     -7.67383705	    -23.16643114	    -11.54101602	    -29.57133575	      4.58907932	     59.96416221	    -10.06182813	     12.61494102	     44.92439359	     17.74142356	     16.29620307	    -13.27913301
      7.09000000	     -2.37444035	      0.83838679	     13.12918728	     -0.11684397	      1.02624599	      0.00817944	     12.54246515	    -11.58821878	     27.41023490	     -8.33995075	     10.61915163	     -7.17293965	    -18.94522916	    -64.06110820	    114.21187021	    -70.85161119	   -163.60662987	     12.97655520	     -0.06131557	     15.96217843	     -7.63297772	    -22.50287737	    -11.69631745	    -29.78087248	      4.23336631	     60.37322898	    -11.33350868	     11.74780754	     46.88232283	     16.93088685	     16.36651894	    -12.96326425
      7.10000000	     -2.23969178	      0.76981351	     13.23249344	     -0.11730481	      1.02611632	      0.00809462	     12.30634848	    -11.26861259	     26.77230506	     -7.91328179	     10.19087938	     -7.07676580	    -19.60265412	    -64.65074518	    114.21249123	    -71.96077787	   -163.66480997	     13.43439635	     -0.28047545	     15.69586265	     -7.23754081	    -22.07596193	    -12.25887463	    -30.17676247	      4.00936334	     60.13538687	    -11.87599271	     11.95608536	     48.45896134	     16.62705423	     16.28693800	    -13.14226077
      7.11000000	     -2.32242809	      0.80712732	     13.29377917	     -0.11766533	      1.02683650	      0.00793865	     12.04878802	    -11.73941436	     25.88524187	     -8.05433712	      9.40131756	     -6.48014858	    -20.69677155	    -65.36310832	    113.21980210	    -72.86307968	   -163.87439664	     15.02243786	     -1.79417122	     15.24190810	     -7.09471188	    -21.29839582	    -12.47067590	    -30.30242141	      3.61608898	     60.42761607	    -13.15621092	     11.08411013	     50.31911472	     15.88674629	     16.13989923	    -12.87391063
      7.12000000	     -2.18562058	      0.73579953	     13.49659651	     -0.11811755	      1.02671538	      0.00780534	     11.81109175	    -11.44883684	     25.23466897	     -7.63873411	      8.94800071	     -6.36523791	    -21.42849428	    -66.06248406	    113.15286317	    -73.77497223	   -163.87320982	     15.58165779	     -2.10590559	     14.95309131	     -6.68815847	    -20.83948544	    -13.06198625	    -30.72922933	      3.37839865	     60.15937660	    -13.81060569	     11.14592710	     51.91603518	     15.57465759	     16.02507999	    -13.05677693
      7.13000000	     -2.24984154	      0.77651145	     13.45891044	     -0.11843617	      1.02737231	      0.00776701	     11.57352564	    -11.81201107	     24.40648101	     -7.69172248	      8.19041881	     -5.84670945	    -22.58109854	    -66.68995825	    112.10816088	    -74.63670835	   -163.74402593	     17.44187217	     -3.70637963	     14.49458020	     -6.53348566	    -20.04087929	    -13.24899654	    -30.77756614	      2.98175298	     60.43713463	    -15.05607740	     10.41434215	     53.61836607	     14.96472952	     15.67985243	    -12.98782320
      7.14000000	     -2.11599419	      0.70385435	     13.65559832	     -0.11891946	      1.02727362	      0.00765115	     11.34322928	    -11.48995676	     23.76769186	     -7.24277020	      7.73478476	     -5.74848488	    -23.33864406	    -67.38541479	    112.02107414	    -75.42913132	   -163.65155081	     18.03317971	     -4.03638790	     14.20929151	     -6.11740114	    -19.57902332	    -13.85004537	    -31.19958363	      2.72896474	     60.16831339	    -15.74956723	     10.45489225	     55.13961925	     14.69387048	     15.53749923	    -13.21222919
      7.15000000	     -2.15280912	      0.72295505	     13.58361193	     -0.11907909	      1.02796820	      0.00771758	     11.06369843	    -11.81606613	     22.94747581	     -7.30098698	      7.09749463	     -5.25464094	    -24.65302836	    -68.01423834	    110.83531843	    -76.08246959	   -163.14342937	     20.21089695	     -5.82438873	     13.69843352	     -5.94977667	    -18.68411779	    -14.03287825	    -31.20151199	      2.31007325	     60.41749892	    -16.99106856	      9.76864713	     56.66533848	     14.16637272	     14.99309117	    -13.35049733
      7.16000000	     -2.02816142	      0.65885212	     13.68660732	     -0.11957931	      1.02774290	      0.00775918	     10.86440009	    -11.39509123	     22.35513555	     -6.75642303	      6.63040073	     -5.21964970	    -25.32324691	    -68.56735322	    110.83176920	    -76.90309529	   -163.03688267	     20.65315091	     -6.01937476	     13.45298560	     -5.51929600	    -18.28627076	    -14.63849656	    -31.60795356	      2.07915992	     60.18612207	    -17.66608232	      9.90771980	     58.06945884	     13.96748223	     14.87299261	    -13.61228682
      7.17000000	     -2.02569394	      0.71299998	     13.79461577	     -0.11983717	      1.02835708	      0.00780546	     10.61366305	    -11.58981681	     21.54974921	     -6.66695831	      5.92000049	     -4.79790460	    -26.70719080	    -69.16308503	    109.57253526	    -77.28388094	   -162.24171298	     22.88524246	     -7.82619493	     12.94665212	     -5.32270067	    -17.39884554	    -14.87635537	    -31.67110139	      1.65943856	     60.39425090	    -18.94383870	      9.01717469	     59.43513266	     13.58928307	     14.20299089	    -14.03119577
      7.18000000	     -1.89656161	      0.60753842	     13.94607734	     -0.12029269	      1.02825922	      0.00768327	     10.38889680	    -11.22628155	     20.97921298	     -6.21201583	      5.57025340	     -4.73856351	    -27.53603345	    -69.86759239	    109.46271772	    -77.79194605	   -162.00709980	     23.45189494	     -8.14125043	     12.67262546	     -4.88737396	    -16.94516267	    -15.49684124	    -32.08298609	      1.39599155	     60.11801918	    -19.69284397	      9.05359833	     60.75036906	     13.37932587	     13.99181086	    -14.33344946
      7.19000000	     -1.92023849	      0.60377403	     13.72803793	     -0.12024914	      1.02891926	      0.00779548	     10.05839363	    -11.36612782	     20.34473236	     -6.28621188	      5.41753308	     -4.41268250	    -29.53587169	    -70.45896479	    107.82725053	    -77.99531766	   -160.79262728	     26.00715122	    -10.13791999	     12.07603689	     -4.64049883	    -15.86898593	    -15.68571848	    -31.93655981	      0.92833791	     60.36344456	    -20.89591088	      8.25356729	     61.92450966	     12.95398454	     12.90105807	    -15.07776209
